<svg width="74" height="74" viewBox="0 0 74 74" fill="none" xmlns="http://www.w3.org/2000/svg">
<g id="Property 1=Default">
<circle id="Ellipse 5" cx="37" cy="37" r="37" fill="#F6D000"/>
<path id="Arrow 1" d="M27.9393 44.9393C27.3536 45.5251 27.3536 46.4749 27.9393 47.0607C28.5251 47.6464 29.4749 47.6464 30.0607 47.0607L27.9393 44.9393ZM47.4706 29.0294C47.4706 28.201 46.799 27.5294 45.9706 27.5294L32.4706 27.5294C31.6421 27.5294 30.9706 28.201 30.9706 29.0294C30.9706 29.8579 31.6421 30.5294 32.4706 30.5294H44.4706V42.5294C44.4706 43.3579 45.1421 44.0294 45.9706 44.0294C46.799 44.0294 47.4706 43.3579 47.4706 42.5294L47.4706 29.0294ZM30.0607 47.0607L47.0312 30.0901L44.9099 27.9688L27.9393 44.9393L30.0607 47.0607Z" fill="white"/>
</g>
</svg>
