<svg width="250" height="93" viewBox="0 0 250 93" fill="none" xmlns="http://www.w3.org/2000/svg">
<mask id="path-1-inside-1_252_14852" fill="white">
<path fill-rule="evenodd" clip-rule="evenodd" d="M16 0C7.16344 0 0 7.16343 0 16V61.9929C0 70.8294 7.16345 77.9929 16 77.9929H197.992L211.258 92.6713C211.655 93.1106 212.345 93.1106 212.742 92.6713L226.008 77.9929H234C242.837 77.9929 250 70.8294 250 61.9929V16C250 7.16344 242.837 0 234 0H16Z"/>
</mask>
<path fill-rule="evenodd" clip-rule="evenodd" d="M16 0C7.16344 0 0 7.16343 0 16V61.9929C0 70.8294 7.16345 77.9929 16 77.9929H197.992L211.258 92.6713C211.655 93.1106 212.345 93.1106 212.742 92.6713L226.008 77.9929H234C242.837 77.9929 250 70.8294 250 61.9929V16C250 7.16344 242.837 0 234 0H16Z" fill="white"/>
<path d="M197.992 77.9929L199.476 76.6518L198.881 75.9929H197.992V77.9929ZM211.258 92.6713L212.742 91.3303L212.742 91.3303L211.258 92.6713ZM212.742 92.6713L211.258 91.3303L211.258 91.3303L212.742 92.6713ZM226.008 77.9929V75.9929H225.119L224.524 76.6518L226.008 77.9929ZM2 16C2 8.268 8.26801 2 16 2V-2C6.05888 -2 -2 6.05886 -2 16H2ZM2 61.9929V16H-2V61.9929H2ZM16 75.9929C8.26802 75.9929 2 69.7248 2 61.9929H-2C-2 71.934 6.05888 79.9929 16 79.9929V75.9929ZM197.992 75.9929H16V79.9929H197.992V75.9929ZM212.742 91.3303L199.476 76.6518L196.508 79.3339L209.774 94.0123L212.742 91.3303ZM211.258 91.3303C211.655 90.8909 212.345 90.8909 212.742 91.3303L209.774 94.0123C210.965 95.3303 213.035 95.3303 214.226 94.0123L211.258 91.3303ZM224.524 76.6518L211.258 91.3303L214.226 94.0123L227.492 79.3339L224.524 76.6518ZM234 75.9929H226.008V79.9929H234V75.9929ZM248 61.9929C248 69.7249 241.732 75.9929 234 75.9929V79.9929C243.941 79.9929 252 71.934 252 61.9929H248ZM248 16V61.9929H252V16H248ZM234 2C241.732 2 248 8.26801 248 16H252C252 6.05887 243.941 -2 234 -2V2ZM16 2H234V-2H16V2Z" fill="#EE4F4F" mask="url(#path-1-inside-1_252_14852)"/>
</svg>
