<svg width="20" height="20" viewBox="0 0 20 20" fill="none" xmlns="http://www.w3.org/2000/svg">
<path fill-rule="evenodd" clip-rule="evenodd" d="M7.94515 7.56739H10.9164V9.04739C11.3444 8.19619 12.442 7.43139 14.0908 7.43139C17.2516 7.43139 18.002 9.12579 18.002 12.2346V17.9922H14.802V12.9426C14.802 11.1722 14.374 10.1738 13.2844 10.1738C11.7732 10.1738 11.1452 11.2498 11.1452 12.9418V17.9922H7.94515V7.56739ZM2.45795 17.8562H5.65795V7.43139H2.45795V17.8562ZM6.11635 4.03219C6.11647 4.30041 6.06328 4.56598 5.95986 4.81346C5.85645 5.06094 5.70487 5.2854 5.51395 5.47379C5.12707 5.85829 4.6034 6.07351 4.05795 6.07219C3.51346 6.07182 2.991 5.85715 2.60355 5.47459C2.41332 5.28556 2.26226 5.06085 2.15903 4.81333C2.05579 4.56582 2.00242 4.30037 2.00195 4.03219C2.00195 3.49059 2.21795 2.97219 2.60435 2.58979C2.99146 2.20671 3.51415 1.99195 4.05875 1.99219C4.60435 1.99219 5.12755 2.20739 5.51395 2.58979C5.89955 2.97219 6.11635 3.49059 6.11635 4.03219Z" fill="#4675EB"/>
</svg>
