<svg width="36" height="36" viewBox="0 0 36 36" fill="none" xmlns="http://www.w3.org/2000/svg">
<path d="M20.1 18L29.55 8.55C30.15 7.95 30.15 7.05 29.55 6.45C28.95 5.85 28.05 5.85 27.45 6.45L18 15.9L8.55 6.45C7.95 5.85 7.05 5.85 6.45 6.45C5.85 7.05 5.85 7.95 6.45 8.55L15.9 18L6.45 27.45C6.15 27.75 6 28.05 6 28.5C6 29.4 6.6 30 7.5 30C7.95 30 8.25 29.85 8.55 29.55L18 20.1L27.45 29.55C27.75 29.85 28.05 30 28.5 30C28.95 30 29.25 29.85 29.55 29.55C30.15 28.95 30.15 28.05 29.55 27.45L20.1 18Z" fill="#2C2C2C"/>
</svg>
