<svg width="40" height="40" viewBox="0 0 40 40" fill="none" xmlns="http://www.w3.org/2000/svg">
<path d="M29.9987 21.6615H21.6654V29.9948C21.6654 30.4368 21.4898 30.8607 21.1772 31.1733C20.8646 31.4859 20.4407 31.6615 19.9987 31.6615C19.5567 31.6615 19.1327 31.4859 18.8202 31.1733C18.5076 30.8607 18.332 30.4368 18.332 29.9948V21.6615H9.9987C9.55667 21.6615 9.13275 21.4859 8.82019 21.1733C8.50763 20.8607 8.33203 20.4368 8.33203 19.9948C8.33203 19.5528 8.50763 19.1288 8.82019 18.8163C9.13275 18.5037 9.55667 18.3281 9.9987 18.3281H18.332V9.99479C18.332 9.55276 18.5076 9.12884 18.8202 8.81628C19.1327 8.50372 19.5567 8.32812 19.9987 8.32812C20.4407 8.32812 20.8646 8.50372 21.1772 8.81628C21.4898 9.12884 21.6654 9.55276 21.6654 9.99479V18.3281H29.9987C30.4407 18.3281 30.8647 18.5037 31.1772 18.8163C31.4898 19.1288 31.6654 19.5528 31.6654 19.9948C31.6654 20.4368 31.4898 20.8607 31.1772 21.1733C30.8647 21.4859 30.4407 21.6615 29.9987 21.6615Z" fill="black"/>
</svg>
