<svg width="20" height="20" viewBox="0 0 20 20" fill="none" xmlns="http://www.w3.org/2000/svg">
<g clip-path="url(#clip0_1244_1625)">
<path fill-rule="evenodd" clip-rule="evenodd" d="M16.2162 3.54319C16.4139 3.45998 16.6303 3.43129 16.8429 3.46008C17.0554 3.48888 17.2564 3.57413 17.4248 3.70694C17.5932 3.83975 17.723 4.01528 17.8005 4.21526C17.8781 4.41523 17.9007 4.63234 17.8658 4.84399L16.0514 15.8496C15.8754 16.9112 14.7106 17.52 13.737 16.9912C12.9226 16.5488 11.713 15.8672 10.625 15.156C10.081 14.8 8.41464 13.66 8.61944 12.8488C8.79544 12.1552 11.5954 9.54879 13.1954 7.99919C13.8234 7.39039 13.537 7.03919 12.7954 7.59919C10.953 8.98959 7.99704 11.104 7.01944 11.6992C6.15704 12.224 5.70744 12.3136 5.16984 12.224C4.18904 12.0608 3.27944 11.808 2.53704 11.5C1.53384 11.084 1.58264 9.70479 2.53624 9.30319L16.2162 3.54319Z" fill="#4675EB"/>
</g>
<defs>
<clipPath id="clip0_1244_1625">
<rect width="19.2" height="19.2" fill="white" transform="translate(0.395508)"/>
</clipPath>
</defs>
</svg>
