<svg width="24" height="24" viewBox="0 0 24 24" fill="none" xmlns="http://www.w3.org/2000/svg">
<path fill-rule="evenodd" clip-rule="evenodd" d="M16.6761 2.62512C13.53 1.92184 10.2673 1.92184 7.12113 2.62512L6.78213 2.70012C5.89715 2.89798 5.08434 3.3373 4.434 3.96928C3.78366 4.60126 3.32124 5.40116 3.09813 6.28012C2.30062 9.42264 2.30062 12.7146 3.09813 15.8571C3.3109 16.6954 3.74153 17.4625 4.34636 18.0807C4.95119 18.6988 5.70871 19.1461 6.54213 19.3771L7.00713 22.1531C7.02197 22.2413 7.06018 22.3238 7.11776 22.3922C7.17535 22.4606 7.25021 22.5122 7.33455 22.5419C7.4189 22.5715 7.50964 22.5779 7.59732 22.5606C7.68501 22.5432 7.76644 22.5026 7.83313 22.4431L10.5641 20.0001C12.6142 20.1252 14.6717 19.9613 16.6761 19.5131L17.0161 19.4381C17.9011 19.2403 18.7139 18.8009 19.3643 18.169C20.0146 17.537 20.477 16.7371 20.7001 15.8581C21.4975 12.7156 21.4975 9.42365 20.7001 6.28112C20.4769 5.40203 20.0144 4.60205 19.3638 3.97005C18.7133 3.33806 17.9003 2.89881 17.0151 2.70112L16.6761 2.62512ZM7.96513 6.19912C7.77927 6.17206 7.58976 6.20947 7.42813 6.30512H7.41413C7.03913 6.52512 6.70113 6.80212 6.41313 7.12812C6.17313 7.40512 6.04313 7.68512 6.00913 7.95512C5.98913 8.11512 6.00313 8.27712 6.05013 8.43012L6.06813 8.44012C6.33813 9.23312 6.69013 9.99612 7.12013 10.7141C7.67458 11.7226 8.35688 12.6553 9.15013 13.4891L9.17413 13.5231L9.21213 13.5511L9.23513 13.5781L9.26313 13.6021C10.0999 14.3978 11.0347 15.0833 12.0451 15.6421C13.2001 16.2711 13.9011 16.5681 14.3221 16.6921V16.6981C14.4451 16.7361 14.5571 16.7531 14.6701 16.7531C15.0287 16.7266 15.368 16.5809 15.6341 16.3391C15.9591 16.0511 16.2341 15.7121 16.4481 15.3351V15.3281C16.6491 14.9481 16.5811 14.5901 16.2911 14.3471C15.7086 13.8382 15.0788 13.3861 14.4101 12.9971C13.9621 12.7541 13.5071 12.9011 13.3231 13.1471L12.9301 13.6431C12.7281 13.8891 12.3621 13.8551 12.3621 13.8551L12.3521 13.8611C9.62113 13.1641 8.89213 10.3991 8.89213 10.3991C8.89213 10.3991 8.85813 10.0231 9.11113 9.83112L9.60313 9.43512C9.83913 9.24312 10.0031 8.78912 9.75013 8.34112C9.36373 7.67188 8.91257 7.04219 8.40313 6.46112C8.29202 6.32436 8.13619 6.23122 7.96313 6.19812L7.96513 6.19912ZM12.5791 4.99712C12.4465 4.99712 12.3193 5.04979 12.2256 5.14356C12.1318 5.23733 12.0791 5.36451 12.0791 5.49712C12.0791 5.62972 12.1318 5.7569 12.2256 5.85067C12.3193 5.94444 12.4465 5.99712 12.5791 5.99712C13.8441 5.99712 14.8941 6.41012 15.7251 7.20212C16.1521 7.63512 16.4851 8.14812 16.7031 8.71012C16.9221 9.27312 17.0221 9.87411 16.9961 10.4761C16.9934 10.5418 17.0036 10.6073 17.0262 10.6691C17.0487 10.7308 17.0832 10.7874 17.1277 10.8358C17.2176 10.9335 17.3425 10.9915 17.4751 10.9971C17.6077 11.0027 17.7371 10.9553 17.8348 10.8655C17.9325 10.7757 17.9906 10.6507 17.9961 10.5181C18.0271 9.7776 17.9042 9.0387 17.6351 8.34812C17.3649 7.65425 16.9551 7.02323 16.4311 6.49412L16.4211 6.48412C15.3901 5.49912 14.0851 4.99712 12.5791 4.99712ZM12.5451 6.64112C12.4125 6.64112 12.2853 6.69379 12.1916 6.78756C12.0978 6.88133 12.0451 7.00851 12.0451 7.14112C12.0451 7.27372 12.0978 7.4009 12.1916 7.49467C12.2853 7.58844 12.4125 7.64112 12.5451 7.64112H12.5621C13.4741 7.70612 14.1381 8.01012 14.6031 8.50912C15.0801 9.02312 15.3271 9.66212 15.3081 10.4521C15.3051 10.5847 15.3548 10.7131 15.4464 10.809C15.5381 10.905 15.664 10.9606 15.7966 10.9636C15.9292 10.9667 16.0576 10.9169 16.1536 10.8253C16.2495 10.7337 16.3051 10.6077 16.3081 10.4751C16.3321 9.43812 15.9981 8.54312 15.3361 7.82912V7.82712C14.6591 7.10112 13.7301 6.71712 12.6121 6.64212L12.5951 6.64012L12.5451 6.64112ZM12.5261 8.31612C12.4592 8.31021 12.3918 8.31785 12.3279 8.33858C12.264 8.3593 12.2049 8.39269 12.1542 8.43675C12.1035 8.48081 12.0622 8.53464 12.0328 8.59501C12.0033 8.65539 11.9864 8.72108 11.9829 8.78816C11.9794 8.85525 11.9894 8.92235 12.0124 8.98546C12.0354 9.04857 12.0709 9.10639 12.1168 9.15548C12.1626 9.20457 12.2179 9.24392 12.2793 9.27117C12.3407 9.29843 12.407 9.31303 12.4741 9.31412C12.8921 9.33612 13.1591 9.46212 13.3271 9.63112C13.4961 9.80112 13.6221 10.0741 13.6451 10.5011C13.6464 10.5682 13.6611 10.6344 13.6885 10.6957C13.7158 10.7569 13.7553 10.8121 13.8044 10.8578C13.8535 10.9035 13.9113 10.9389 13.9744 10.9618C14.0375 10.9847 14.1045 10.9947 14.1716 10.9911C14.2386 10.9876 14.3042 10.9705 14.3645 10.9411C14.4248 10.9116 14.4785 10.8703 14.5226 10.8197C14.5666 10.769 14.5999 10.71 14.6206 10.6462C14.6413 10.5823 14.649 10.515 14.6431 10.4481C14.6111 9.84812 14.4231 9.31812 14.0381 8.92812C13.6511 8.53812 13.1241 8.34812 12.5261 8.31612Z" fill="#4675EB"/>
</svg>
