<svg width="250" height="93" fill="none" xmlns="http://www.w3.org/2000/svg"><mask id="a" fill="#fff"><path fill-rule="evenodd" clip-rule="evenodd" d="M16 0C7.163 0 0 7.163 0 16v45.993c0 8.836 7.163 16 16 16h181.992l13.266 14.678a1 1 0 001.484 0l13.266-14.678H234c8.837 0 16-7.164 16-16V16c0-8.837-7.163-16-16-16H16z"/></mask><path fill-rule="evenodd" clip-rule="evenodd" d="M16 0C7.163 0 0 7.163 0 16v45.993c0 8.836 7.163 16 16 16h181.992l13.266 14.678a1 1 0 001.484 0l13.266-14.678H234c8.837 0 16-7.164 16-16V16c0-8.837-7.163-16-16-16H16z" fill="#fff"/><path d="M197.992 77.993l1.484-1.341-.595-.66h-.889v2zm13.266 14.678l1.484-1.34-1.484 1.34zm1.484 0l-1.484-1.34 1.484 1.34zm13.266-14.678v-2h-.889l-.595.659 1.484 1.34zM2 16C2 8.268 8.268 2 16 2v-4C6.059-2-2 6.059-2 16h4zm0 45.993V16h-4v45.993h4zm14 14c-7.732 0-14-6.268-14-14h-4c0 9.941 8.059 18 18 18v-4zm181.992 0H16v4h181.992v-4zm14.75 15.337l-13.266-14.678-2.968 2.682 13.266 14.678 2.968-2.682zm-1.484 0a1 1 0 011.484 0l-2.968 2.682a3 3 0 004.452 0l-2.968-2.682zm13.266-14.678L211.258 91.33l2.968 2.682 13.266-14.678-2.968-2.682zm9.476-.66h-7.992v4H234v-4zm14-14c0 7.733-6.268 14-14 14v4c9.941 0 18-8.058 18-18h-4zM248 16v45.993h4V16h-4zM234 2c7.732 0 14 6.268 14 14h4c0-9.941-8.059-18-18-18v4zM16 2h218v-4H16v4z" fill="#EE4F4F" mask="url(#a)"/></svg>